<svg xmlns="http://www.w3.org/2000/svg" width="960" height="400" viewBox="0 0 960 400">
  <rect width="960" height="400" fill="#0f172a" rx="12"/>
  <text x="40" y="36" fill="#e2e8f0" font-size="20" font-family="Menlo, monospace">Sleep Trend (30d)</text>
  <line x1="40" y1="50" x2="920" y2="50" stroke="#334155"/>
  <text x="40" y="78" fill="#cbd5e1" font-size="13" font-family="Menlo, monospace">03-01</text>
  <rect x="120" y="66" width="596" height="16" rx="4" fill="#3b82f6" opacity="0.7"/>
  <text x="724" y="78" fill="#94a3b8" font-size="13" font-family="Menlo, monospace">8.36h</text>
  <text x="40" y="100" fill="#cbd5e1" font-size="13" font-family="Menlo, monospace">03-02</text>
  <rect x="120" y="88" width="432" height="16" rx="4" fill="#3b82f6" opacity="0.7"/>
  <text x="560" y="100" fill="#94a3b8" font-size="13" font-family="Menlo, monospace">6.06h</text>
  <text x="40" y="122" fill="#cbd5e1" font-size="13" font-family="Menlo, monospace">03-03</text>
  <rect x="120" y="110" width="289" height="16" rx="4" fill="#f87171" opacity="0.7"/>
  <text x="417" y="122" fill="#94a3b8" font-size="13" font-family="Menlo, monospace">4.05h</text>
  <text x="40" y="144" fill="#cbd5e1" font-size="13" font-family="Menlo, monospace">03-04</text>
  <rect x="120" y="132" width="328" height="16" rx="4" fill="#f87171" opacity="0.7"/>
  <text x="456" y="144" fill="#94a3b8" font-size="13" font-family="Menlo, monospace">4.6h</text>
  <text x="40" y="166" fill="#cbd5e1" font-size="13" font-family="Menlo, monospace">03-05</text>
  <rect x="120" y="154" width="462" height="16" rx="4" fill="#3b82f6" opacity="0.7"/>
  <text x="590" y="166" fill="#94a3b8" font-size="13" font-family="Menlo, monospace">6.48h</text>
  <text x="40" y="188" fill="#cbd5e1" font-size="13" font-family="Menlo, monospace">03-06</text>
  <rect x="120" y="176" width="354" height="16" rx="4" fill="#f87171" opacity="0.7"/>
  <text x="482" y="188" fill="#94a3b8" font-size="13" font-family="Menlo, monospace">4.97h</text>
  <text x="40" y="210" fill="#cbd5e1" font-size="13" font-family="Menlo, monospace">03-07 *</text>
  <rect x="120" y="198" width="29" height="16" rx="4" fill="#f87171" opacity="0.7"/>
  <text x="157" y="210" fill="#94a3b8" font-size="13" font-family="Menlo, monospace">0.4h</text>
  <text x="40" y="232" fill="#cbd5e1" font-size="13" font-family="Menlo, monospace">03-08</text>
  <rect x="120" y="220" width="562" height="16" rx="4" fill="#3b82f6" opacity="0.7"/>
  <text x="690" y="232" fill="#94a3b8" font-size="13" font-family="Menlo, monospace">7.88h</text>
  <text x="40" y="254" fill="#cbd5e1" font-size="13" font-family="Menlo, monospace">03-09</text>
  <rect x="120" y="242" width="433" height="16" rx="4" fill="#3b82f6" opacity="0.7"/>
  <text x="561" y="254" fill="#94a3b8" font-size="13" font-family="Menlo, monospace">6.07h</text>
  <text x="40" y="276" fill="#cbd5e1" font-size="13" font-family="Menlo, monospace">03-10</text>
  <rect x="120" y="264" width="618" height="16" rx="4" fill="#3b82f6" opacity="0.7"/>
  <text x="746" y="276" fill="#94a3b8" font-size="13" font-family="Menlo, monospace">8.67h</text>
  <text x="40" y="298" fill="#cbd5e1" font-size="13" font-family="Menlo, monospace">03-11</text>
  <rect x="120" y="286" width="378" height="16" rx="4" fill="#3b82f6" opacity="0.7"/>
  <text x="506" y="298" fill="#94a3b8" font-size="13" font-family="Menlo, monospace">5.3h</text>
  <text x="40" y="320" fill="#cbd5e1" font-size="13" font-family="Menlo, monospace">03-12</text>
  <rect x="120" y="308" width="409" height="16" rx="4" fill="#3b82f6" opacity="0.7"/>
  <text x="537" y="320" fill="#94a3b8" font-size="13" font-family="Menlo, monospace">5.73h</text>
  <text x="40" y="342" fill="#cbd5e1" font-size="13" font-family="Menlo, monospace">03-13</text>
  <rect x="120" y="330" width="379" height="16" rx="4" fill="#3b82f6" opacity="0.7"/>
  <text x="507" y="342" fill="#94a3b8" font-size="13" font-family="Menlo, monospace">5.31h</text>
  <text x="40" y="364" fill="#cbd5e1" font-size="13" font-family="Menlo, monospace">03-14</text>
  <rect x="120" y="352" width="358" height="16" rx="4" fill="#3b82f6" opacity="0.7"/>
  <text x="486" y="364" fill="#94a3b8" font-size="13" font-family="Menlo, monospace">5.02h</text>
  <text x="40" y="386" fill="#cbd5e1" font-size="13" font-family="Menlo, monospace">03-15</text>
  <rect x="120" y="374" width="478" height="16" rx="4" fill="#3b82f6" opacity="0.7"/>
  <text x="606" y="386" fill="#94a3b8" font-size="13" font-family="Menlo, monospace">6.7h</text>
  <text x="40" y="408" fill="#cbd5e1" font-size="13" font-family="Menlo, monospace">03-16</text>
  <rect x="120" y="396" width="436" height="16" rx="4" fill="#3b82f6" opacity="0.7"/>
  <text x="564" y="408" fill="#94a3b8" font-size="13" font-family="Menlo, monospace">6.12h</text>
  <text x="40" y="430" fill="#cbd5e1" font-size="13" font-family="Menlo, monospace">03-17</text>
  <rect x="120" y="418" width="381" height="16" rx="4" fill="#3b82f6" opacity="0.7"/>
  <text x="509" y="430" fill="#94a3b8" font-size="13" font-family="Menlo, monospace">5.34h</text>
  <text x="40" y="452" fill="#cbd5e1" font-size="13" font-family="Menlo, monospace">03-18</text>
  <rect x="120" y="440" width="478" height="16" rx="4" fill="#3b82f6" opacity="0.7"/>
  <text x="606" y="452" fill="#94a3b8" font-size="13" font-family="Menlo, monospace">6.71h</text>
  <text x="40" y="474" fill="#cbd5e1" font-size="13" font-family="Menlo, monospace">03-19</text>
  <rect x="120" y="462" width="339" height="16" rx="4" fill="#f87171" opacity="0.7"/>
  <text x="467" y="474" fill="#94a3b8" font-size="13" font-family="Menlo, monospace">4.76h</text>
  <text x="40" y="496" fill="#cbd5e1" font-size="13" font-family="Menlo, monospace">03-20</text>
  <rect x="120" y="484" width="435" height="16" rx="4" fill="#3b82f6" opacity="0.7"/>
  <text x="563" y="496" fill="#94a3b8" font-size="13" font-family="Menlo, monospace">6.1h</text>
  <text x="40" y="518" fill="#cbd5e1" font-size="13" font-family="Menlo, monospace">03-21</text>
  <rect x="120" y="506" width="555" height="16" rx="4" fill="#3b82f6" opacity="0.7"/>
  <text x="683" y="518" fill="#94a3b8" font-size="13" font-family="Menlo, monospace">7.78h</text>
  <text x="40" y="540" fill="#cbd5e1" font-size="13" font-family="Menlo, monospace">03-22</text>
  <rect x="120" y="528" width="552" height="16" rx="4" fill="#3b82f6" opacity="0.7"/>
  <text x="680" y="540" fill="#94a3b8" font-size="13" font-family="Menlo, monospace">7.74h</text>
  <text x="40" y="562" fill="#cbd5e1" font-size="13" font-family="Menlo, monospace">03-23</text>
  <rect x="120" y="550" width="461" height="16" rx="4" fill="#3b82f6" opacity="0.7"/>
  <text x="589" y="562" fill="#94a3b8" font-size="13" font-family="Menlo, monospace">6.47h</text>
  <text x="40" y="584" fill="#cbd5e1" font-size="13" font-family="Menlo, monospace">03-24</text>
  <rect x="120" y="572" width="538" height="16" rx="4" fill="#3b82f6" opacity="0.7"/>
  <text x="666" y="584" fill="#94a3b8" font-size="13" font-family="Menlo, monospace">7.55h</text>
  <text x="40" y="606" fill="#cbd5e1" font-size="13" font-family="Menlo, monospace">03-25</text>
  <rect x="120" y="594" width="267" height="16" rx="4" fill="#f87171" opacity="0.7"/>
  <text x="395" y="606" fill="#94a3b8" font-size="13" font-family="Menlo, monospace">3.74h</text>
  <text x="40" y="628" fill="#cbd5e1" font-size="13" font-family="Menlo, monospace">03-26</text>
  <rect x="120" y="616" width="463" height="16" rx="4" fill="#3b82f6" opacity="0.7"/>
  <text x="591" y="628" fill="#94a3b8" font-size="13" font-family="Menlo, monospace">6.49h</text>
  <text x="40" y="650" fill="#cbd5e1" font-size="13" font-family="Menlo, monospace">03-27</text>
  <rect x="120" y="638" width="332" height="16" rx="4" fill="#f87171" opacity="0.7"/>
  <text x="460" y="650" fill="#94a3b8" font-size="13" font-family="Menlo, monospace">4.65h</text>
  <text x="40" y="672" fill="#cbd5e1" font-size="13" font-family="Menlo, monospace">03-28</text>
  <rect x="120" y="660" width="381" height="16" rx="4" fill="#3b82f6" opacity="0.7"/>
  <text x="509" y="672" fill="#94a3b8" font-size="13" font-family="Menlo, monospace">5.35h</text>
  <text x="40" y="694" fill="#cbd5e1" font-size="13" font-family="Menlo, monospace">03-29 *</text>
  <rect x="120" y="682" width="113" height="16" rx="4" fill="#f87171" opacity="0.7"/>
  <text x="241" y="694" fill="#94a3b8" font-size="13" font-family="Menlo, monospace">1.58h</text>
  <text x="40" y="716" fill="#cbd5e1" font-size="13" font-family="Menlo, monospace">03-30</text>
  <rect x="120" y="704" width="478" height="16" rx="4" fill="#3b82f6" opacity="0.7"/>
  <text x="606" y="716" fill="#94a3b8" font-size="13" font-family="Menlo, monospace">6.71h</text>
</svg>